<svg xmlns="http://www.w3.org/2000/svg" width="36.767" height="31.696" viewBox="0 0 36.767 31.696"><g transform="translate(1 1)"><path d="M75.476,68.069A3.477,3.477,0,1,1,72,64.592,3.478,3.478,0,0,1,75.476,68.069Z" transform="translate(-54.532 -51.423)" fill="none" stroke="#4ebf2c" stroke-linecap="round" stroke-linejoin="round" stroke-width="2"/><path d="M77.962,4.188A2.688,2.688,0,1,1,75.273,1.5,2.688,2.688,0,0,1,77.962,4.188Z" transform="translate(-57.747 -1.5)" fill="none" stroke="#4ebf2c" stroke-linecap="round" stroke-linejoin="round" stroke-width="2"/><path d="M104.8,75.95h11.158l-3.031-11.073H102.213" transform="translate(-81.191 -51.648)" fill="none" stroke="#4ebf2c" stroke-linecap="round" stroke-linejoin="round" stroke-width="2"/><path d="M15.185,64.876H4.618L1.5,75.949H12.8" transform="translate(-1.5 -51.648)" fill="none" stroke="#4ebf2c" stroke-linecap="round" stroke-linejoin="round" stroke-width="2"/><path d="M71.381,40.79V37.6a3.168,3.168,0,0,0-3.168-3.168H64.8A3.167,3.167,0,0,0,61.628,37.6V40.79" transform="translate(-49.077 -27.561)" fill="none" stroke="#4ebf2c" stroke-linecap="round" stroke-linejoin="round" stroke-width="2"/><path d="M67.3,113.926v-3.948a4.049,4.049,0,0,0-4.163-3.925H58.642a4.049,4.049,0,0,0-4.163,3.925v3.948" transform="translate(-43.421 -84.229)" fill="none" stroke="#4ebf2c" stroke-linecap="round" stroke-linejoin="round" stroke-width="2"/></g></svg>