<svg xmlns="http://www.w3.org/2000/svg" width="25.933" height="28.184" viewBox="0 0 25.933 28.184"><g transform="translate(-326.975 -860.646)"><g transform="translate(326 859.715)"><line x2="8.027" transform="translate(9.929 17.201)" fill="none" stroke="#4ebf2c" stroke-linecap="round" stroke-linejoin="round" stroke-width="2"/><line x2="8.027" transform="translate(9.929 20.2)" fill="none" stroke="#4ebf2c" stroke-linecap="round" stroke-linejoin="round" stroke-width="2"/><line x2="3.477" y2="3.531" transform="translate(10.465 13.67)" fill="none" stroke="#4ebf2c" stroke-linecap="round" stroke-linejoin="round" stroke-width="2"/><line x1="3.477" y2="3.531" transform="translate(13.942 13.67)" fill="none" stroke="#4ebf2c" stroke-linecap="round" stroke-linejoin="round" stroke-width="2"/><line y2="6.746" transform="translate(13.942 17.201)" fill="none" stroke="#4ebf2c" stroke-linecap="round" stroke-linejoin="round" stroke-width="2"/><g transform="translate(2 2)"><g transform="translate(0 0)"><path d="M36.075,3.186a1.262,1.262,0,0,0-1.64-.759l-1.442.684A2.112,2.112,0,0,1,30.9,2.934l-.82-.65a1.316,1.316,0,0,0-1.634,0l-.82.65a2.111,2.111,0,0,1-2.094.177l-1.441-.684a1.262,1.262,0,0,0-1.641.759,1.277,1.277,0,0,0,0,.75l2.226,4.792h9.177l2.226-4.792A1.275,1.275,0,0,0,36.075,3.186Z" transform="translate(-17.321 -2)" fill="none" stroke="#4ebf2c" stroke-linecap="round" stroke-linejoin="round" stroke-width="2"/><line x2="1.003" y2="2.902" transform="translate(9.595 3.826)" fill="none" stroke="#4ebf2c" stroke-linecap="round" stroke-linejoin="round" stroke-width="2"/><line x1="1.003" y2="2.902" transform="translate(13.287 3.826)" fill="none" stroke="#4ebf2c" stroke-linecap="round" stroke-linejoin="round" stroke-width="2"/><path d="M25.84,40.4c-.753-9.645-7.558-11.349-7.558-11.349H9.6S2.8,30.753,2.043,40.4c0,0-1.083,8.039,7.551,8.039h8.7C26.924,48.436,25.84,40.4,25.84,40.4Z" transform="translate(-2 -22.321)" fill="none" stroke="#4ebf2c" stroke-linecap="round" stroke-linejoin="round" stroke-width="2"/></g></g></g></g></svg>