<svg xmlns="http://www.w3.org/2000/svg" width="43.827" height="30.155" viewBox="0 0 43.827 30.155"><g transform="translate(12531 22789.078)"><g transform="translate(-12530 -22788.078)"><path d="M106.654,12.06c0,.759-1.236,1.346-1.423,2.047-.194.725.578,1.85.21,2.484s-1.736.536-2.258,1.058-.414,1.886-1.058,2.258-1.759-.4-2.484-.21c-.7.187-1.287,1.423-2.047,1.423s-1.346-1.236-2.047-1.424c-.725-.193-1.85.578-2.484.211s-.536-1.736-1.058-2.258-1.886-.414-2.258-1.058.4-1.759.21-2.484c-.187-.7-1.423-1.287-1.423-2.047s1.236-1.346,1.423-2.047c.194-.725-.578-1.85-.21-2.484s1.736-.536,2.258-1.058.414-1.886,1.058-2.258,1.759.4,2.484.211C96.248,4.236,96.835,3,97.595,3s1.346,1.236,2.047,1.423c.725.194,1.85-.578,2.484-.21s.536,1.736,1.058,2.258,1.886.414,2.258,1.058-.4,1.759-.211,2.484C105.418,10.713,106.654,11.3,106.654,12.06Z" transform="translate(-64.828 -3)" fill="none" stroke="#a0d232" stroke-linecap="round" stroke-linejoin="round" stroke-width="2"/><path d="M111.995,20.723a5.738,5.738,0,1,1-5.738-5.738A5.738,5.738,0,0,1,111.995,20.723Z" transform="translate(-73.49 -11.663)" fill="none" stroke="#a0d232" stroke-linecap="round" stroke-linejoin="round" stroke-width="2"/><path d="M95.193,67.378,92.785,72.7l-1.519-1.846-2.389.078,2.408-5.323" transform="translate(-65.074 -48.256)" fill="none" stroke="#a0d232" stroke-linecap="round" stroke-linejoin="round" stroke-width="2"/><path d="M130.778,67.378l2.408,5.323,1.519-1.846,2.389.078-2.408-5.323" transform="translate(-95.363 -48.256)" fill="none" stroke="#a0d232" stroke-linecap="round" stroke-linejoin="round" stroke-width="2"/><path d="M25.315,62.918V61.439A4.2,4.2,0,0,0,22.561,57.5a3.64,3.64,0,1,0-2.9,0,4.2,4.2,0,0,0-2.754,3.943v1.479" transform="translate(-13.051 -37.348)" fill="none" stroke="#a0d232" stroke-linecap="round" stroke-linejoin="round" stroke-width="2"/><path d="M31.877,31H13.854V27.715H32.307" transform="translate(-10.846 -20.865)" fill="none" stroke="#a0d232" stroke-linecap="round" stroke-linejoin="round" stroke-width="2"/><path d="M62.708,57.2h0" transform="translate(-41.151 -42.181)" fill="none" stroke="#a0d232" stroke-linecap="round" stroke-linejoin="round" stroke-width="2"/><path d="M65.887,73.143h0" transform="translate(-43.2 -53.702)" fill="none" stroke="#a0d232" stroke-linecap="round" stroke-linejoin="round" stroke-width="2"/><path d="M25.747,16.278H4.243A1.242,1.242,0,0,0,3,17.521V39.51a1.242,1.242,0,0,0,1.243,1.243H34.733a1.242,1.242,0,0,0,1.243-1.243V33.142" transform="translate(-3 -12.598)" fill="none" stroke="#a0d232" stroke-linecap="round" stroke-linejoin="round" stroke-width="2"/><path d="M32.307,27.715H13.855V31H31.877" transform="translate(-10.846 -20.865)" fill="none" stroke="#a0d232" stroke-linecap="round" stroke-linejoin="round" stroke-width="2"/></g></g></svg>