<svg xmlns="http://www.w3.org/2000/svg" width="38.783" height="29.57" viewBox="0 0 38.783 29.57"><g transform="translate(13866.344 21750.877)"><path d="M16.514,1.9A14.184,14.184,0,0,0,9.079,0,16.9,16.9,0,0,0,0,3.072v24.5a17.017,17.017,0,0,1,4.981-2.6A15.8,15.8,0,0,1,9.2,24.31a14.887,14.887,0,0,1,4.767.813c.932.35,1.914,1.1,3.116.824s1.325-1.7,1.325-2.5V4.745a2.619,2.619,0,0,0-.466-1.8A6.832,6.832,0,0,0,16.514,1.9Z" transform="translate(-13846.964 -21749.877)" fill="none" stroke="#a0d232" stroke-linejoin="round" stroke-width="2"/><line y2="11.487" transform="translate(-13832.977 -21741.836)" fill="none" stroke="#a0d232" stroke-linecap="round" stroke-linejoin="round" stroke-width="2"/><line y2="11.487" transform="translate(-13837.57 -21743.227)" fill="none" stroke="#a0d232" stroke-linecap="round" stroke-linejoin="round" stroke-width="2"/><line y2="11.487" transform="translate(-13842.166 -21743.133)" fill="none" stroke="#a0d232" stroke-linecap="round" stroke-linejoin="round" stroke-width="2"/><path d="M9.889,9.9A14.184,14.184,0,0,1,17.324,8,16.9,16.9,0,0,1,26.4,11.072v24.5a17.017,17.017,0,0,0-4.981-2.6,15.8,15.8,0,0,0-4.214-.664,14.887,14.887,0,0,0-4.767.813c-.932.35-1.914,1.1-3.116.824S8,32.248,8,31.449v-18.7a2.619,2.619,0,0,1,.466-1.8A6.832,6.832,0,0,1,9.889,9.9Z" transform="translate(-13873.344 -21757.877)" fill="none" stroke="#a0d232" stroke-linejoin="round" stroke-width="2"/><line y2="11.487" transform="translate(-13860.928 -21741.836)" fill="none" stroke="#a0d232" stroke-linecap="round" stroke-linejoin="round" stroke-width="2"/><line y2="11.487" transform="translate(-13856.334 -21743.227)" fill="none" stroke="#a0d232" stroke-linecap="round" stroke-linejoin="round" stroke-width="2"/><line y2="11.487" transform="translate(-13851.738 -21743.133)" fill="none" stroke="#a0d232" stroke-linecap="round" stroke-linejoin="round" stroke-width="2"/></g></svg>