<svg xmlns="http://www.w3.org/2000/svg" width="22.063" height="28" viewBox="0 0 22.063 28"><g transform="translate(10380 15197.999)"><path d="M22.1,3H3.963A.963.963,0,0,0,3,3.962V28.036A.963.963,0,0,0,3.963,29h13.61a1.814,1.814,0,0,0,1.283-.531l3.676-3.676a1.813,1.813,0,0,0,.531-1.283V3.962A.963.963,0,0,0,22.1,3Z" transform="translate(-10382 -15199.998)" fill="none" stroke="#4ebf2c" stroke-linecap="round" stroke-linejoin="round" stroke-width="2"/><path d="M81.229,105.408H77.194a1.029,1.029,0,0,0-1.029,1.029v4.035" transform="translate(-10440.313 -15281.619)" fill="none" stroke="#4ebf2c" stroke-linecap="round" stroke-linejoin="round" stroke-width="2"/><path d="M66.66,33.715v-.154a2.171,2.171,0,0,0-1.423-2.037,1.881,1.881,0,1,0-1.5,0,2.171,2.171,0,0,0-1.423,2.037v.154" transform="translate(-10429.274 -15219.859)" fill="none" stroke="#4ebf2c" stroke-linecap="round" stroke-linejoin="round" stroke-width="2"/><rect width="7.222" height="8.409" transform="translate(-10368.397 -15193.66)" fill="none" stroke="#4ebf2c" stroke-linecap="round" stroke-linejoin="round" stroke-width="2"/><line x2="5.392" transform="translate(-10376.328 -15193.199)" fill="none" stroke="#4ebf2c" stroke-linecap="round" stroke-linejoin="round" stroke-width="2"/><line x2="5.392" transform="translate(-10376.328 -15189.445)" fill="none" stroke="#4ebf2c" stroke-linecap="round" stroke-linejoin="round" stroke-width="2"/><line x2="14.719" transform="translate(-10376.328 -15181.937)" fill="none" stroke="#4ebf2c" stroke-linecap="round" stroke-linejoin="round" stroke-width="2"/><line x2="14.719" transform="translate(-10376.328 -15178.182)" fill="none" stroke="#4ebf2c" stroke-linecap="round" stroke-linejoin="round" stroke-width="2"/><line x2="9.467" transform="translate(-10376.328 -15174.428)" fill="none" stroke="#4ebf2c" stroke-linecap="round" stroke-linejoin="round" stroke-width="2"/><line x2="5.392" transform="translate(-10376.328 -15185.69)" fill="none" stroke="#4ebf2c" stroke-linecap="round" stroke-linejoin="round" stroke-width="2"/></g></svg>