<svg xmlns="http://www.w3.org/2000/svg" width="28.087" height="30.538" viewBox="0 0 28.087 30.538"><g transform="translate(12523.027 22717.709)"><line x2="8.75" transform="translate(-12513.358 -22700.068)" fill="none" stroke="#a0d232" stroke-linecap="round" stroke-linejoin="round" stroke-width="2"/><line x2="8.75" transform="translate(-12513.358 -22696.799)" fill="none" stroke="#a0d232" stroke-linecap="round" stroke-linejoin="round" stroke-width="2"/><line x2="3.789" y2="3.848" transform="translate(-12512.772 -22703.916)" fill="none" stroke="#a0d232" stroke-linecap="round" stroke-linejoin="round" stroke-width="2"/><line x1="3.789" y2="3.848" transform="translate(-12508.983 -22703.916)" fill="none" stroke="#a0d232" stroke-linecap="round" stroke-linejoin="round" stroke-width="2"/><line y2="7.353" transform="translate(-12508.983 -22700.068)" fill="none" stroke="#a0d232" stroke-linecap="round" stroke-linejoin="round" stroke-width="2"/><g transform="translate(-12522 -22716.637)"><g transform="translate(0 0)"><path d="M37.307,3.292a1.375,1.375,0,0,0-1.788-.827l-1.571.746a2.3,2.3,0,0,1-2.282-.193l-.894-.708a1.434,1.434,0,0,0-1.781,0l-.894.708a2.3,2.3,0,0,1-2.282.193l-1.571-.746a1.376,1.376,0,0,0-1.788.827,1.392,1.392,0,0,0,0,.818L24.88,9.333h10L37.309,4.11A1.39,1.39,0,0,0,37.307,3.292Z" transform="translate(-16.864 -2)" fill="none" stroke="#a0d232" stroke-linecap="round" stroke-linejoin="round" stroke-width="2"/><line x2="1.093" y2="3.163" transform="translate(10.458 4.17)" fill="none" stroke="#a0d232" stroke-linecap="round" stroke-linejoin="round" stroke-width="2"/><line x1="1.093" y2="3.163" transform="translate(14.482 4.17)" fill="none" stroke="#a0d232" stroke-linecap="round" stroke-linejoin="round" stroke-width="2"/><path d="M27.986,41.419c-.821-10.513-8.239-12.37-8.239-12.37H10.286s-7.418,1.858-8.239,12.37c0,0-1.181,8.762,8.23,8.762h9.478C29.167,50.181,27.986,41.419,27.986,41.419Z" transform="translate(-2 -21.716)" fill="none" stroke="#a0d232" stroke-linecap="round" stroke-linejoin="round" stroke-width="2"/></g></g></g></svg>